#!OML:ASF H:\ManfredObstacles\Project 1\Capture day 2\Session 1\male.ASF
:FULLY-SPECIFIED
:DEGREES
484
root 2.12853 15.4865 -17.3644 -148.912 6.73379 176.468
lowerback 22.7426 -2.7135 -3.53196
upperback 8.07974 -2.81666 0.821778
thorax -3.56887 -0.870887 3.56062
lowerneck -32.6768 4.37864 5.366
upperneck 22.3938 5.36625 -5.89835
head 13.2065 1.95226 -2.11621
rclavicle -1.23246e-014 4.77083e-015
rhumerus -49.3975 -5.33805 -74.976
rradius 57.0814
rwrist 8.6336
rhand -9.91511 -7.41952
rfingers 7.12502
rthumb 16.0654 -36.7735
lclavicle -1.23246e-014 4.77083e-015
lhumerus -10.7511 -25.3262 79.0116
lradius 92.537
lwrist -28.1928
lhand -23.227 6.99894
lfingers 7.12502
lthumb 3.22384 36.9543
rfemur -77.5348 2.48719 11.8639
rtibia 63.1596
rfoot -0.0405761 -15.5603
rtoes -26.2644
lfemur -19.8375 -1.47759 -27.0573
ltibia 38.1827
lfoot 15.8427 18.9759
ltoes -3.91757
485
root 2.16373 15.5354 -17.6675 -149.121 7.05705 176.643
lowerback 21.8907 -2.87848 -3.46306
upperback 7.97736 -3.06479 0.765469
thorax -3.24146 -1.02479 3.48706
lowerneck -32.5887 4.68104 5.63504
upperneck 22.7739 5.74729 -6.05094
head 13.3884 2.11955 -2.14605
rclavicle 1.19271e-015 1.59028e-015
rhumerus -50.5455 -4.67849 -75.0722
rradius 58.2872
rwrist 8.20625
rhand -10.5128 -7.24632
rfingers 7.12502
rthumb 15.4898 -36.6458
lclavicle 1.19271e-015 1.59028e-015
lhumerus -12.1764 -25.3324 79.1203
lradius 92.644
lwrist -28.058
lhand -23.0258 6.86764
lfingers 7.12502
lthumb 3.41821 36.82
rfemur -76.192 2.67515 11.9116
rtibia 59.8211
rfoot 0.530856 -14.4729
rtoes -26.5818
lfemur -17.8244 -1.53316 -26.9369
ltibia 36.4059
lfoot 17.5373 17.5502
ltoes -3.04515
486
root 2.20074 15.5716 -17.9722 -149.377 7.3675 176.782
lowerback 21.0017 -3.04073 -3.3893
upperback 7.87709 -3.30884 0.674862
thorax -2.89363 -1.17617 3.3662
lowerneck -32.4812 4.96838 5.92053
upperneck 23.1865 6.10557 -6.19383
head 13.5821 2.28055 -2.17943
rclavicle 3.18055e-015 5.96354e-015
rhumerus -51.5858 -4.05763 -75.2199
rradius 59.5156
rwrist 7.82571
rhand -11.1021 -7.09852
rfingers 7.12502
rthumb 14.9222 -36.541
lclavicle 3.18055e-015 5.96354e-015
lhumerus -13.6575 -25.3623 79.2713
lradius 92.6795
lwrist -27.9078
lhand -22.8131 6.727
lfingers 7.12502
lthumb 3.62361 36.6759
rfemur -74.7721 2.83984 11.9631
rtibia 56.9398
rfoot 1.09268 -13.4335
rtoes -26.7476
lfemur -15.9487 -1.73898 -26.8462
ltibia 35.0155
lfoot 19.1836 16.1987
ltoes -2.08937
487
root 2.23951 15.5945 -18.2771 -149.694 7.65006 176.872
lowerback 20.101 -3.20601 -3.31624
upperback 7.78411 -3.5551 0.553969
thorax -2.53176 -1.32708 3.20814
lowerneck -32.3624 5.24148 6.21521
upperneck 23.6163 6.44788 -6.3372
head 13.7836 2.4362 -2.21776
rclavicle -2.26615e-014 8.74653e-015
rhumerus -52.5016 -3.46875 -75.4272
rradius 60.7596
rwrist 7.49094
rhand -11.6835 -6.98326
rfingers 7.12502
rthumb 14.362 -36.4664
lclavicle -2.26615e-014 8.74653e-015
lhumerus -15.1696 -25.4003 79.4538
lradius 92.6477
lwrist -27.734
lhand -22.5561 6.58149
lfingers 7.12502
lthumb 3.87174 36.5261
rfemur -73.2814 2.96662 12.0145
rtibia 54.5677
rfoot 1.83603 -12.4357
rtoes -26.2161
lfemur -14.2648 -2.06783 -26.8012
ltibia 34.1293
lfoot 20.7415 14.9234
ltoes -1.18653
488
root 2.28013 15.6036 -18.5805 -150.053 7.90269 176.913
lowerback 19.204 -3.36136 -3.26236
upperback 7.67629 -3.79326 0.425469
thorax -2.18552 -1.47352 3.04698
lowerneck -32.2053 5.48268 6.47532
upperneck 24.0267 6.76872 -6.47806
head 13.97 2.5815 -2.25373
rclavicle -3.49861e-014 -1.23246e-014
rhumerus -53.3097 -2.90414 -75.6639
rradius 62.0174
rwrist 7.17501
rhand -12.2549 -6.89133
rfingers 7.12502
rthumb 13.8113 -36.4128
lclavicle -3.49861e-014 -1.23246e-014
lhumerus -16.7443 -25.4334 79.7361
lradius 92.5672
lwrist -27.5309
lhand -22.2406 6.41406
lfingers 7.12502
lthumb 4.1764 36.3529
rfemur -71.7625 3.04574 12.0728
rtibia 52.7377
rfoot 2.85066 -11.4559
rtoes -24.5298
lfemur -12.8612 -2.45984 -26.8039
ltibia 33.8439
lfoot 22.1467 13.733
ltoes -0.398087
489
root 2.3231 15.5989 -18.8814 -150.457 8.10321 176.903
lowerback 18.3245 -3.50669 -3.23083
upperback 7.55692 -4.02141 0.301894
thorax -1.85721 -1.61429 2.89835
lowerneck -32.0605 5.68827 6.69874
upperneck 24.4559 7.06753 -6.62793
head 14.1673 2.71307 -2.29213
rclavicle -1.39149e-014 6.75868e-015
rhumerus -54.0099 -2.37113 -75.9198
rradius 63.2938
rwrist 6.89589
rhand -12.7857 -6.82124
rfingers 7.12502
rthumb 13.2998 -36.3769
lclavicle -1.39149e-014 6.75868e-015
lhumerus -18.3633 -25.4495 80.1235
lradius 92.4619
lwrist -27.2762
lhand -21.8483 6.23066
lfingers 7.12502
lthumb 4.55522 36.1617
rfemur -70.2158 3.05767 12.1562
rtibia 51.4757
rfoot 3.92936 -10.5294
rtoes -21.8277
lfemur -11.7686 -2.85277 -26.8436
ltibia 34.2044
lfoot 23.3494 12.6729
ltoes 0.223352
490
root 2.36883 15.5807 -19.1798 -150.902 8.25956 176.851
lowerback 17.4968 -3.634 -3.2481
upperback 7.4044 -4.23639 0.197055
thorax -1.58437 -1.74859 2.79412
lowerneck -31.9094 5.86188 6.88822
upperneck 24.9092 7.35245 -6.7911
head 14.3751 2.83463 -2.33373
rclavicle 2.06736e-014 -1.19271e-014
rhumerus -54.6344 -1.82564 -76.1953
rradius 64.5957
rwrist 6.6331
rhand -13.3063 -6.75454
rfingers 7.12502
rthumb 12.7979 -36.3423
lclavicle 2.06736e-014 -1.19271e-014
lhumerus -20.0684 -25.419 80.6342
lradius 92.3459
lwrist -27.0132
lhand -21.3906 6.02177
lfingers 7.12502
lthumb 4.99723 35.9428
rfemur -68.641 3.00198 12.2931
rtibia 50.7982
rfoot 4.63919 -9.75865
rtoes -18.8108
lfemur -10.977 -3.17189 -26.9082
ltibia 35.1956
lfoot 24.3458 11.7172
ltoes 0.633393
491
root 2.41769 15.5499 -19.4747 -151.379 8.35088 176.765
lowerback 16.7365 -3.74881 -3.31811
upperback 7.21357 -4.44532 0.126617
thorax -1.37797 -1.88026 2.75581
lowerneck -31.7537 6.00661 7.04232
upperneck 25.3769 7.62841 -6.96876
head 14.5902 2.94794 -2.37776
rclavicle 2.8625e-014 2.8625e-014
rhumerus -55.1737 -1.25088 -76.4879
rradius 65.9157
rwrist 6.36895
rhand -13.8026 -6.67726
rfingers 7.12502
rthumb 12.3195 -36.2943
lclavicle 2.8625e-014 2.8625e-014
lhumerus -21.8676 -25.3302 81.2844
lradius 92.2215
lwrist -26.7317
lhand -20.92 5.81044
lfingers 7.12502
lthumb 5.45162 35.7203
rfemur -67.0386 2.85823 12.5072
rtibia 50.6886
rfoot 4.56024 -9.28762
rtoes -16.5064
lfemur -10.4619 -3.38992 -26.9699
ltibia 36.7563
lfoot 25.0656 10.9128
ltoes 0.761047
492
root 2.47024 15.5075 -19.7669 -151.899 8.42489 176.655
lowerback 16.0574 -3.8273 -3.46505
upperback 6.99279 -4.6181 0.0809928
thorax -1.23656 -1.99391 2.78318
lowerneck -31.6102 6.11424 7.14742
upperneck 25.8702 7.88339 -7.14036
head 14.818 3.04913 -2.41631
rclavicle -3.4191e-014 1.90833e-014
rhumerus -55.6381 -0.66204 -76.8098
rradius 67.2717
rwrist 6.08865
rhand -14.2442 -6.62809
rfingers 7.12502
rthumb 11.8936 -36.2703
lclavicle -3.4191e-014 1.90833e-014
lhumerus -23.7473 -25.1945 82.0606
lradius 92.0919
lwrist -26.4804
lhand -20.4866 5.60635
lfingers 7.12502
lthumb 5.87007 35.505
rfemur -65.4095 2.68081 12.7811
rtibia 51.0793
rfoot 3.41905 -9.25781
rtoes -15.8383
lfemur -10.165 -3.46876 -27.0302
ltibia 38.8058
lfoot 25.4866 10.3075
ltoes 0.585039
493
root 2.52597 15.4557 -20.0566 -152.465 8.48327 176.552
lowerback 15.4658 -3.87407 -3.6648
upperback 6.76029 -4.75338 0.0515756
thorax -1.14718 -2.08733 2.85463
lowerneck -31.5068 6.20115 7.24508
upperneck 26.3935 8.11543 -7.29965
head 15.0676 3.14143 -2.45396
rclavicle 4.6118e-014 -5.96354e-015
rhumerus -55.999 -0.065345 -77.1927
rradius 68.6383
rwrist 5.83334
rhand -14.6379 -6.59301
rfingers 7.12502
rthumb 11.514 -36.2568
lclavicle 4.6118e-014 -5.96354e-015
lhumerus -25.6697 -24.9982 82.9165
lradius 91.9602
lwrist -26.25
lhand -20.0961 5.41534
lfingers 7.12502
lthumb 6.247 35.3032
rfemur -63.7434 2.49109 13.1285
rtibia 51.8446
rfoot 1.31029 -9.74333
rtoes -16.8283
lfemur -10.033 -3.41935 -27.0565
ltibia 41.2617
lfoot 25.5906 9.92794
ltoes 0.222038
